{"title":"Lucifer.S01E02.1080p.WEB-DL.DD5.1.H264-Zakh","uid":13417840,"size":1806073759,"categoryP":"video","categoryS":"hd___tv_shows","magnet":"?xt=urn:btih:063e4ad6938190dbc7b8fc4860edd65c1fce9255&amp;dn=Lucifer.S01E02.1080p.WEB-DL.DD5.1.H264-Zakh&amp;tr=udp%3A%2F%2Ftracker.leechers-paradise.org%3A6969&amp;tr=udp%3A%2F%2Fzer0day.ch%3A1337&amp;tr=udp%3A%2F%2Fopen.demonii.com%3A1337&amp;tr=udp%3A%2F%2Ftracker.coppersurfer.tk%3A6969&amp;tr=udp%3A%2F%2Fexodus.desync.com%3A6969","seeders":1,"leechers":0,"uploader":"Khoren","files":2,"time":1454514523,"description":"Bored and unhappy as the Lord of Hell, the original fallen angel, Lucifer Morningstar has abandoned his throne and retired to L.A., where he owns Lux, an upscale nightclub....\r\n\r\n\r\n\r\n\r\nVideo\r\nID : 1\r\nFormat : AVC\r\nFormat/Info : Advanced Video Codec\r\nFormat profile :   \r\nFormat settings, CABAC : Yes\r\nFormat settings, ReFrames : 4 frames\r\nCodec ID : V_MPEG4/ISO/AVC\r\nDuration : 43mn 36s\r\nBit rate : 5 136 Kbps\r\nWidth : 1 916 pixels\r\nHeight : 1 076 pixels\r\nDisplay aspect ratio : 16:9\r\nFrame rate mode : Constant\r\nFrame rate : 23.976 (23976/1000) fps\r\nColor space : YUV\r\nChroma subsampling : 4:2:0\r\nBit depth : 8 bits\r\nScan type : Progressive\r\nBits/(Pixel*Frame) : 0.104\r\nStream size : 1.56 GiB (93%)\r\nLanguage : English\r\nDefault : Yes\r\nForced : No\r\nColor range : Limited\r\nColor primaries : BT.709\r\nTransfer characteristics : BT.709\r\nMatrix coefficients : BT.709\r\n\r\nAudio\r\nID : 2\r\nFormat : AC-3\r\nFormat/Info : Audio Coding 3\r\nMode extension : CM (complete main)\r\nFormat settings, Endianness : Big\r\nCodec ID : A_AC3\r\nDuration : 43mn 36s\r\nBit rate mode : Constant\r\nBit rate : 384 Kbps\r\nChannel(s) : 6 channels\r\nChannel positions : Front: L C R, Side: L R, LFE\r\nSampling rate : 48.0 KHz\r\nFrame rate : 31.250 fps (1536 spf)\r\nCompression mode : Lossy\r\nStream size : 120 MiB (7%)\r\nLanguage : English\r\nDefault : Yes\r\nForced : No\r\n\r\nText\r\nID : 3\r\nFormat : UTF-8\r\nCodec ID : S_TEXT/UTF8\r\nCodec ID/Info : UTF-8 Plain Text\r\nDuration : 42mn 50s\r\nBit rate : 101 bps\r\nCount of elements : 1034\r\nStream size : 31.9 KiB (0%)\r\nLanguage : English\r\nDefault : No\r\nForced : No","torrent":{"xt":"urn:btih:063e4ad6938190dbc7b8fc4860edd65c1fce9255","amp;dn":"Lucifer.S01E02.1080p.WEB-DL.DD5.1.H264-Zakh","amp;tr":["udp%3A%2F%2Ftracker.leechers-paradise.org%3A6969","udp%3A%2F%2Fzer0day.ch%3A1337","udp%3A%2F%2Fopen.demonii.com%3A1337","udp%3A%2F%2Ftracker.coppersurfer.tk%3A6969","udp%3A%2F%2Fexodus.desync.com%3A6969"],"infoHash":"063e4ad6938190dbc7b8fc4860edd65c1fce9255","infoHashBuffer":{"type":"Buffer","data":[6,62,74,214,147,129,144,219,199,184,252,72,96,237,214,92,31,206,146,85]},"announce":[],"urlList":[]}}